<?xml version="1.0" encoding="utf-8"?>
<!-- Generator: Adobe Illustrator 21.1.0, SVG Export Plug-In . SVG Version: 6.00 Build 0)  -->
<svg version="1.1" id="Ebene_1" xmlns="http://www.w3.org/2000/svg" xmlns:xlink="http://www.w3.org/1999/xlink" x="0px" y="0px"
	 viewBox="0 0 1000 1000" style="enable-background:new 0 0 1000 1000;" xml:space="preserve">
<style type="text/css">
	.st0{fill:#176392;}
	.st1{fill:#F96419;}
	.st2{fill:#176392;stroke:#176392;stroke-width:18.0107;stroke-miterlimit:10;}
</style>
<g>
	<g>
		<path class="st0" d="M504.1,215.4h9.5v66.2h-9.5V215.4z"/>
		<path class="st0" d="M581.5,252.7v28.8h-9.1v-27.8c0-9.8-4.9-14.7-13.5-14.7c-9.6,0-15.9,5.8-15.9,16.6v25.8H534v-50.1h8.7v7.6
			c3.7-5.1,10.1-8,18.1-8C572.9,231,581.5,238,581.5,252.7z"/>
		<path class="st0" d="M593.9,276.2l3.8-7.2c4.3,3,11.1,5.2,17.6,5.2c8.4,0,11.9-2.6,11.9-6.8c0-11.3-31.7-1.5-31.7-21.5
			c0-9,8-15,20.9-15c6.5,0,13.9,1.7,18.3,4.5l-3.9,7.2c-4.5-2.9-9.6-4-14.5-4c-7.9,0-11.8,2.9-11.8,6.9c0,11.8,31.8,2.2,31.8,21.7
			c0,9.1-8.3,14.8-21.7,14.8C606.3,282.1,598.1,279.6,593.9,276.2z"/>
		<path class="st0" d="M694.6,259.5H654c1.1,8.8,8.2,14.7,18.2,14.7c5.9,0,10.8-2,14.5-6.1l5,5.9c-4.5,5.3-11.4,8.1-19.8,8.1
			c-16.2,0-26.9-10.7-26.9-25.6c0-14.8,10.7-25.5,25.2-25.5s24.8,10.4,24.8,25.8C694.8,257.5,694.7,258.7,694.6,259.5z M654,253
			h32.2c-0.9-8.4-7.3-14.4-16.1-14.4C661.4,238.6,654.9,244.5,654,253z"/>
		<path class="st0" d="M709.3,211.4h9.1v70.2h-9.1V211.4z"/>
		<path class="st0" d="M546.3,373.1h-35.2l-7.3,16.5h-9.7l30-66.2h9.4l30.1,66.2h-9.9L546.3,373.1z M543,365.5l-14.3-32.4
			l-14.3,32.4H543z"/>
		<path class="st0" d="M625.8,364.5c0,15.4-10.7,25.6-25.3,25.6c-7.1,0-13.3-2.7-17.5-8.1V408h-9.1v-68.5h8.7v7.9
			c4.1-5.6,10.5-8.4,17.9-8.4C615.1,339,625.8,349.2,625.8,364.5z M616.6,364.5c0-10.6-7.3-17.6-16.9-17.6c-9.5,0-16.8,7-16.8,17.6
			c0,10.7,7.3,17.7,16.8,17.7C609.3,382.2,616.6,375.2,616.6,364.5z"/>
		<path class="st0" d="M635.6,364.5c0-14.9,11.1-25.5,26.1-25.5c15,0,26,10.6,26,25.5s-11,25.6-26,25.6
			C646.7,390.2,635.6,379.5,635.6,364.5z M678.6,364.5c0-10.7-7.2-17.6-16.8-17.6c-9.6,0-16.9,6.9-16.9,17.6s7.3,17.7,16.9,17.7
			C671.4,382.2,678.6,375.2,678.6,364.5z"/>
		<path class="st0" d="M730.4,386.7c-2.7,2.4-6.9,3.5-11,3.5c-10.1,0-15.9-5.6-15.9-15.7V347H695v-7.5h8.5v-11h9.1v11H727v7.5h-14.4
			v27.1c0,5.4,2.8,8.4,7.8,8.4c2.6,0,5.2-0.9,7.1-2.4L730.4,386.7z"/>
		<path class="st0" d="M790.8,360.8v28.8h-9.1v-27.8c0-9.8-4.9-14.7-13.5-14.7c-9.6,0-15.9,5.8-15.9,16.6v25.8h-9.1v-70.2h9.1v27.1
			c3.8-4.8,10-7.6,17.7-7.6C782.2,339,790.8,346,790.8,360.8z"/>
		<path class="st0" d="M854.9,367.6h-40.7c1.1,8.8,8.2,14.7,18.2,14.7c5.9,0,10.8-2,14.5-6.1l5,5.9c-4.5,5.3-11.4,8.1-19.8,8.1
			c-16.2,0-26.9-10.7-26.9-25.6c0-14.8,10.7-25.5,25.2-25.5s24.8,10.4,24.8,25.8C855.1,365.6,855,366.7,854.9,367.6z M814.2,361
			h32.2c-0.9-8.4-7.3-14.4-16.1-14.4C821.6,346.7,815.2,352.5,814.2,361z"/>
		<path class="st0" d="M889,366.3l-10.4,9.6v13.7h-9.1v-70.2h9.1v45l27.3-25h11l-21.1,20.7l23.2,29.4h-11.2L889,366.3z"/>
		<path class="st0" d="M972.7,367.6h-40.7c1.1,8.8,8.2,14.7,18.2,14.7c5.9,0,10.8-2,14.5-6.1l5,5.9c-4.5,5.3-11.4,8.1-19.8,8.1
			c-16.2,0-26.9-10.7-26.9-25.6c0-14.8,10.7-25.5,25.2-25.5s24.8,10.4,24.8,25.8C972.9,365.6,972.8,366.7,972.7,367.6z M932.1,361
			h32.2c-0.9-8.4-7.3-14.4-16.1-14.4C939.4,346.7,933,352.5,932.1,361z"/>
		<path class="st0" d="M504.1,449.5h9.5v66.2h-9.5V449.5z"/>
		<path class="st0" d="M534,445.5h9.1v70.2H534V445.5z"/>
		<path class="st0" d="M606.6,465.6l-21.9,50.1h-9.3l-21.9-50.1h9.5l17.2,40.2l17.6-40.2H606.6z"/>
		<path class="st0" d="M660.7,493.6H620c1.1,8.8,8.2,14.7,18.2,14.7c5.9,0,10.8-2,14.5-6.1l5,5.9c-4.5,5.3-11.4,8.1-19.8,8.1
			c-16.2,0-26.9-10.7-26.9-25.6c0-14.8,10.7-25.5,25.2-25.5s24.8,10.4,24.8,25.8C660.9,491.7,660.8,492.8,660.7,493.6z M620,487.1
			h32.2c-0.9-8.4-7.3-14.4-16.1-14.4C627.4,472.8,621,478.6,620,487.1z"/>
		<path class="st0" d="M669,510.4l3.8-7.2c4.3,3,11.1,5.2,17.6,5.2c8.4,0,11.9-2.6,11.9-6.8c0-11.3-31.7-1.5-31.7-21.5
			c0-9,8-15,20.9-15c6.5,0,13.9,1.7,18.3,4.5l-3.9,7.2c-4.5-2.9-9.6-4-14.5-4c-7.9,0-11.8,2.9-11.8,6.9c0,11.8,31.8,2.2,31.8,21.7
			c0,9.1-8.3,14.8-21.7,14.8C681.4,516.2,673.2,513.7,669,510.4z"/>
		<path class="st0" d="M772.2,486.8v28.8h-9.1v-27.8c0-9.8-4.9-14.7-13.5-14.7c-9.6,0-15.9,5.8-15.9,16.6v25.8h-9.1v-70.2h9.1v27.1
			c3.8-4.8,10-7.6,17.7-7.6C763.6,465.1,772.2,472.1,772.2,486.8z"/>
		<path class="st0" d="M836.3,493.6h-40.7c1.1,8.8,8.2,14.7,18.2,14.7c5.9,0,10.8-2,14.5-6.1l5,5.9c-4.5,5.3-11.4,8.1-19.8,8.1
			c-16.2,0-26.9-10.7-26.9-25.6c0-14.8,10.7-25.5,25.2-25.5s24.8,10.4,24.8,25.8C836.5,491.7,836.4,492.8,836.3,493.6z M795.6,487.1
			h32.2c-0.9-8.4-7.3-14.4-16.1-14.4C803,472.8,796.6,478.6,795.6,487.1z"/>
		<path class="st0" d="M849.3,450.1c0-3.3,2.6-6,6.1-6s6.1,2.6,6.1,5.8c0,3.4-2.6,6.1-6.1,6.1C852,455.9,849.3,453.4,849.3,450.1z
			 M850.9,465.6h9.1v50.1h-9.1V465.6z"/>
		<path class="st0" d="M962.4,486.8v28.8h-9.1v-27.8c0-9.8-4.7-14.7-13-14.7c-9.1,0-15,5.8-15,16.6v25.8h-9.1v-27.8
			c0-9.8-4.7-14.7-13-14.7c-9.1,0-15,5.8-15,16.6v25.8h-9.1v-50.1h8.7v7.5c3.6-5.1,9.7-7.9,17.3-7.9c7.7,0,14.1,3,17.4,9.3
			c3.8-5.7,10.8-9.3,19.3-9.3C954.1,465.1,962.4,472.1,962.4,486.8z"/>
	</g>
</g>
<g>
	<path class="st1" d="M149.1,618.4c-2.5,0-4.5-2-4.5-4.5V510.3H41c-2.5,0-4.5-2-4.5-4.5V397.8c0-2.5,2-4.5,4.5-4.5h103.6V289.7
		c0-2.5,2-4.5,4.5-4.5h108.1c2.5,0,4.5,2,4.5,4.5v103.6h103.6c2.5,0,4.5,2,4.5,4.5v108.1c0,2.5-2,4.5-4.5,4.5H261.6v103.6
		c0,2.5-2,4.5-4.5,4.5H149.1z"/>
	<path class="st1" d="M257.1,289.7v108.1h108.1v108.1H257.1v108.1H149.1V505.8H41V397.8h108.1V289.7H257.1 M257.1,280.7H149.1
		c-5,0-9,4-9,9v99.1H41c-5,0-9,4-9,9v108.1c0,5,4,9,9,9h99.1v99.1c0,5,4,9,9,9h108.1c5,0,9-4,9-9v-99.1h99.1c5,0,9-4,9-9V397.8
		c0-5-4-9-9-9h-99.1v-99.1C266.1,284.7,262.1,280.7,257.1,280.7L257.1,280.7z"/>
</g>
<path class="st2" d="M407.5,645.8c-6.5,3.5-13.1,7-19.4,10.7c-15.9,10.1-28.3,18.5-42.5,26.7c-13.8,8.5-27.8,16.1-41.8,23.4
	c-28.1,14.2-56.9,25.6-85.2,29.5c-28.4,4.1-56.1-1.2-82.7-17.7c-26.9-15.9-50.5-41-75.7-64.9c12.8,32.2,28.8,63.3,54.6,90.7
	c13,13.4,29.2,25.3,47.7,33.1c18.4,7.9,38.7,11.9,58.4,12.2c39.7,0.7,76.4-10.5,109.9-24.3c16.8-7.1,32.8-15.2,48.4-23.7
	c15.4-8.6,31.3-18.9,44.2-26.8c53.1-32.4,112.5-52.2,175.4-55.3c62.9-3.3,128.6,8.2,193.1,32.4c-24.5-24.9-55.1-43.3-87.4-58.2
	c-32.5-14.5-67.8-24-104.3-27.6c-36.5-3.5-74-0.9-110.1,7.8c-6.2,1.5-12.2,3.4-18.3,5.2L407.5,645.8z"/>
</svg>
