<?xml version="1.0" encoding="utf-8"?>
<!-- Generator: Adobe Illustrator 21.1.0, SVG Export Plug-In . SVG Version: 6.00 Build 0)  -->
<svg version="1.1" id="Ebene_1" xmlns="http://www.w3.org/2000/svg" xmlns:xlink="http://www.w3.org/1999/xlink" x="0px" y="0px"
	 viewBox="0 0 1000 1000" style="enable-background:new 0 0 1000 1000;" xml:space="preserve">
<style type="text/css">
	.st0{fill:#F96419;}
</style>
<g>
	<path class="st0" d="M344.3,980c-7.2,0-13-5.8-13-13V668.6H33c-7.2,0-13-5.8-13-13V344.3c0-7.2,5.8-13,13-13h298.4V33
		c0-7.2,5.8-13,13-13h311.3c7.2,0,13,5.8,13,13v298.4H967c7.2,0,13,5.8,13,13v311.3c0,7.2-5.8,13-13,13H668.6V967
		c0,7.2-5.8,13-13,13H344.3z"/>
	<path class="st0" d="M655.7,33v311.3H967v311.3H655.7V967H344.3V655.7H33V344.3h311.3V33H655.7 M655.7,7.1H344.3
		c-14.3,0-25.9,11.6-25.9,25.9v285.4H33c-14.3,0-25.9,11.6-25.9,25.9v311.3c0,14.3,11.6,25.9,25.9,25.9h285.4V967
		c0,14.3,11.6,25.9,25.9,25.9h311.3c14.3,0,25.9-11.6,25.9-25.9V681.6H967c14.3,0,25.9-11.6,25.9-25.9V344.3
		c0-14.3-11.6-25.9-25.9-25.9H681.6V33C681.6,18.7,670,7.1,655.7,7.1L655.7,7.1z"/>
</g>
</svg>
